<svg width="19" height="25" viewBox="0 0 19 25" fill="none" xmlns="http://www.w3.org/2000/svg">
<path d="M0.125521 9.37498C0.125521 7.67498 0.542187 6.10832 1.37552 4.67498C2.20885 3.24165 3.35052 2.10832 4.80052 1.27498C6.25052 0.44165 7.81719 0.0166501 9.50052 -1.65832e-05C11.1839 -0.0166832 12.7505 0.408317 14.2005 1.27498C15.6505 2.14165 16.7922 3.27498 17.6255 4.67498C18.4589 6.07498 18.8755 7.64165 18.8755 9.37498C18.8755 10.0917 18.7005 10.925 18.3505 11.875C18.0005 12.825 17.5589 13.7833 17.0255 14.75C16.4922 15.7167 15.8839 16.7 15.2005 17.7C14.5172 18.7 13.8505 19.6333 13.2005 20.5C12.5505 21.3666 11.9422 22.1333 11.3755 22.8C10.8089 23.4667 10.3589 24.0083 10.0255 24.425L9.50052 25C9.36719 24.8666 9.19219 24.6667 8.97552 24.4C8.75885 24.1333 8.31719 23.6083 7.65052 22.825C6.98385 22.0417 6.36719 21.2583 5.80052 20.475C5.23385 19.6917 4.57552 18.775 3.82552 17.725C3.07552 16.675 2.45885 15.675 1.97552 14.725C1.49219 13.775 1.05052 12.8333 0.650521 11.9C0.250521 10.9667 0.0755208 10.125 0.125521 9.37498ZM3.25052 9.37498C3.25052 11.1083 3.85885 12.5833 5.07552 13.8C6.29219 15.0167 7.76719 15.625 9.50052 15.625C11.2339 15.625 12.7089 15.0167 13.9255 13.8C15.1422 12.5833 15.7505 11.1083 15.7505 9.37498C15.7505 7.64165 15.1422 6.17498 13.9255 4.97498C12.7089 3.77498 11.2339 3.15832 9.50052 3.12498C7.76719 3.09165 6.29219 3.70832 5.07552 4.97498C3.85885 6.24165 3.25052 7.70832 3.25052 9.37498Z" fill="black"/>
</svg>
